<?xml version="1.0" encoding="UTF-8"?>
<svg id="Layer_1" data-name="Layer 1" xmlns="http://www.w3.org/2000/svg" viewBox="0 0 416 204.98">
  <defs>
    <style>
      .cls-1 {
        fill: #bfbfbf;
      }

      .cls-1, .cls-2 {
        stroke: #000;
        stroke-miterlimit: 10;
        stroke-width: 3px;
      }

      .cls-2 {
        fill: #fff;
      }

      .cls-3 {
        fill: #00ba00;
        stroke-width: 0px;
      }
    </style>
  </defs>
  <rect class="cls-1" x="297.02" y="67.47" width="117.48" height="72.75" rx="23.5" ry="23.5"/>
  <rect class="cls-2" x="1.5" y="1.5" width="375.95" height="201.98" rx="36.99" ry="36.99"/>
  <path class="cls-3" d="m29.68,103.41c0-21.75,0-43.51,0-65.26,0-6.68,3.13-9.84,9.78-9.85,9.48-.01,18.97-.01,28.45,0,5.89,0,9.11,3.15,9.12,9.03.03,21.3.01,42.61.01,63.91,0,22.49,0,44.98,0,67.48,0,5-2.21,8.1-6.4,9.07-.8.18-1.64.22-2.46.22-9.86.01-19.72.02-29.58,0-5.36-.01-8.85-3.35-8.86-8.67-.04-21.98-.02-43.96-.02-65.94h-.04Z"/>
  <path class="cls-3" d="m97.9,103.19c0-21.75,0-43.5,0-65.25,0-6.41,3.18-9.63,9.52-9.63,9.56,0,19.12-.02,28.68,0,5.87.01,9.14,3.19,9.14,9.03.02,43.87.03,87.74,0,131.6,0,5.86-3.24,9.06-9.1,9.08-9.71.03-19.42.02-29.13,0-5.78-.01-9.12-3.36-9.12-9.12,0-21.9,0-43.8,0-65.71h0Z"/>
  <path class="cls-3" d="m213.47,103.4c0,21.75,0,43.5,0,65.26,0,5.1-2.11,8.12-6.33,9.13-.94.22-1.94.24-2.91.24-9.78.02-19.57.02-29.35.01-5.15,0-8.73-3.45-8.74-8.58-.02-44.18-.02-88.36,0-132.54,0-5.08,3.61-8.6,8.75-8.61,9.78-.02,19.57-.01,29.35,0,6.03,0,9.21,3.11,9.22,9.16.03,18.44.01,36.88.01,55.32,0,3.54,0,7.08,0,10.61Z"/>
</svg>