<?xml version="1.0" encoding="UTF-8"?>
<svg id="Layer_1" data-name="Layer 1" xmlns="http://www.w3.org/2000/svg" viewBox="0 0 416 204.98">
  <defs>
    <style>
      .cls-1 {
        fill: none;
      }

      .cls-1, .cls-2 {
        stroke: #000;
        stroke-miterlimit: 10;
        stroke-width: 3px;
      }

      .cls-2 {
        fill: #bfbfbf;
      }

      .cls-3 {
        fill: #00ba00;
        stroke-width: 0px;
      }
    </style>
  </defs>
  <g>
    <path class="cls-2" d="m391,67.47h-13.55v72.75h13.55c12.98,0,23.5-10.52,23.5-23.5v-25.75c0-12.98-10.52-23.5-23.5-23.5Z"/>
    <path class="cls-1" d="m377.45,67.47v-28.98c0-20.43-16.56-36.99-36.99-36.99H38.49C18.06,1.5,1.5,18.06,1.5,38.49v128c0,20.43,16.56,36.99,36.99,36.99h301.97c20.43,0,36.99-16.56,36.99-36.99v-26.27"/>
  </g>
  <path class="cls-3" d="m29.68,103.41V38.15c0-6.68,3.13-9.84,9.78-9.85,9.48-.01,18.97-.01,28.45,0,5.89,0,9.11,3.15,9.12,9.03.03,21.3.01,42.61.01,63.91v67.48c0,5-2.21,8.1-6.4,9.07-.8.18-1.64.22-2.46.22-9.86,0-19.72.02-29.58,0-5.36,0-8.85-3.35-8.86-8.67-.04-21.98-.02-43.96-.02-65.94h-.04Z"/>
  <path class="cls-3" d="m97.9,103.19V37.94c0-6.41,3.18-9.63,9.52-9.63,9.56,0,19.12-.02,28.68,0,5.87.01,9.14,3.19,9.14,9.03.02,43.87.03,87.74,0,131.6,0,5.86-3.24,9.06-9.1,9.08-9.71.03-19.42.02-29.13,0-5.78,0-9.12-3.36-9.12-9.12v-65.71h.01Z"/>
  <path class="cls-3" d="m213.47,103.4v65.26c0,5.1-2.11,8.12-6.33,9.13-.94.22-1.94.24-2.91.24-9.78.02-19.57.02-29.35,0-5.15,0-8.73-3.45-8.74-8.58-.02-44.18-.02-88.36,0-132.54,0-5.08,3.61-8.6,8.75-8.61,9.78-.02,19.57-.01,29.35,0,6.03,0,9.21,3.11,9.22,9.16.03,18.44,0,36.88,0,55.32v10.61h0Z"/>
</svg>