<?xml version="1.0" encoding="UTF-8"?>
<svg id="Layer_1" data-name="Layer 1" xmlns="http://www.w3.org/2000/svg" viewBox="0 0 252.73 189.63">
  <defs>
    <style>
      .cls-1 {
        stroke-width: 0px;
      }
    </style>
  </defs>
  <path class="cls-1" d="m0,34.69c.09-.27.21-.54.27-.82,1.52-7.55,7.54-12.59,15.28-12.75,1.76-.04,3.53,0,5.5,0,0-.62-.02-1.14,0-1.67.12-2.35-.01-4.75.43-7.04C22.85,5.33,28.83.25,36.02.11c7.58-.15,15.16-.16,22.74,0,8.35.17,14.75,6.89,14.95,15.42.04,1.8,0,3.6,0,5.49h105.28c0-.64-.04-1.3,0-1.95.17-2.51.05-5.1.63-7.52,1.61-6.66,7.47-11.33,14.32-11.46,7.58-.14,15.16-.16,22.74,0,8.4.18,14.85,6.99,14.97,15.54.03,1.76,0,3.52,0,5.46,1.78,0,3.45,0,5.12,0,3.51.02,6.74.93,9.59,3.03,3.04,2.23,4.97,5.21,5.88,8.86.14.57.31,1.12.47,1.69v141.28c-.07.15-.16.3-.19.46-2.09,8.84-7.59,13.19-16.68,13.19-34.16,0-68.32,0-102.48,0-27.97,0-55.93,0-83.9,0-11.2,0-22.41.07-33.61-.06-2.22-.03-4.51-.6-6.61-1.36-1.87-.68-3.72-1.62-5.05-3.31-1.93-2.45-3.46-5.07-3.97-8.2-.04-.24-.16-.47-.24-.71C0,128.87,0,81.78,0,34.69Zm31.64-13.58c.59,0,1.05,0,1.5,0,3.79,0,7.58-.01,11.37,0,1.34,0,2.7-.02,4.03.16,2.27.32,3.76,1.97,4.04,4.23.45,3.68-1.69,6.13-5.41,6.14-10.28.02-20.55,0-30.83,0-3.94,0-5.79,1.85-5.79,5.82-.01,7.24-.01,14.49-.01,21.73,0,37.86,0,75.73.01,113.59,0,.17,0,.34,0,.51.02,3.91,1.84,5.75,5.71,5.77,1.26,0,2.53,0,3.79,0,29.69,0,59.38.01,89.08.01,29.86,0,59.72,0,89.58-.01,12.55,0,25.1.02,37.65,0,3.93,0,5.84-1.88,5.84-5.65,0-16.26,0-32.51,0-48.77,0-29.02,0-58.04,0-87.05,0-4.15-1.8-5.94-5.92-5.95-3.16,0-6.32,0-9.48,0-3.69-.01-5.63-1.94-5.65-5.6-.01-3.33.02-6.65,0-9.98-.03-3.53-1.96-5.44-5.51-5.46-3.03-.02-6.06,0-9.1,0-3.96,0-7.92-.03-11.88.02-2.61.03-4.58,1.44-4.89,3.87-.27,2.13-.06,4.33-.06,6.62.47,0,.93,0,1.38,0,4.51,0,9.01,0,13.52,0,.59,0,1.18.02,1.76.11,2.47.4,4.04,2.14,4.21,4.64.24,3.62-1.88,5.79-5.68,5.79-45.32,0-90.63,0-135.95,0-3.84,0-5.75-1.92-5.76-5.75,0-3.33.02-6.65,0-9.98-.03-3.3-1.97-5.23-5.28-5.32-.63-.02-1.26,0-1.89,0-6.36,0-12.72-.02-19.08,0-2.96.01-5.02,1.66-5.25,4.38-.17,1.96-.03,3.94-.03,6.11Z"/>
  <path class="cls-1" d="m123.27,94.84c4.45,0,8.7.05,12.94-.02,2.14-.04,3.85.92,5.38,2.17,1.11.91,1.15,2.36.79,3.64-.5,1.82-1.18,3.59-1.84,5.36-4.74,12.69-9.49,25.38-14.25,38.06-1.08,2.87-4.79,3.78-7.68,1.89-2.26-1.47-3.11-4.04-2.13-6.63,4.16-11.02,8.34-22.04,12.51-33.05.15-.39.27-.78.47-1.34-.55-.03-.98-.07-1.42-.07-3.92,0-7.83.01-11.75,0-4.29-.02-6.45-3.02-5.09-7.12,3.4-10.26,6.82-20.52,10.25-30.77,1.03-3.07,4.09-4.73,6.85-3.77,2.9,1.02,4.29,4.1,3.23,7.21-2.61,7.69-5.23,15.37-7.85,23.06-.13.39-.24.79-.41,1.37Z"/>
  <path class="cls-1" d="m200.11,63.25c-1.87,0-3.51.01-5.15,0-3.32-.04-5.39-2.03-5.41-5.2-.02-3.22,2.05-5.28,5.41-5.34,1.64-.03,3.28,0,5.13,0,0-.62,0-1.14,0-1.67,0-1.31-.03-2.61.02-3.92.12-2.98,2.15-4.89,5.15-4.92,3.09-.03,5.19,1.86,5.31,4.88.07,1.8.01,3.61.01,5.62,1.15,0,2.18,0,3.21,0,.88,0,1.77-.04,2.65.05,3.02.31,4.81,2.44,4.69,5.51-.11,2.94-2.11,4.9-5.12,4.97-1.76.04-3.51,0-5.42,0,0,1.82.02,3.49,0,5.16-.06,3.79-2.77,5.97-6.48,5.24-2.36-.47-3.89-2.2-3.99-4.7-.07-1.84-.01-3.69-.01-5.7Z"/>
  <path class="cls-1" d="m47.26,63.24c-3.41,0-6.82.02-10.23,0-3.96-.03-6.27-3.1-5.21-6.91.6-2.17,2.3-3.58,4.77-3.6,7.24-.06,14.48-.08,21.72.01,3,.04,4.9,2.28,4.87,5.33-.04,3.02-2.02,5.1-5.06,5.15-3.62.06-7.24.01-10.86.01h0Z"/>
</svg>