<?xml version="1.0" encoding="UTF-8"?>
<svg id="Layer_1" data-name="Layer 1" xmlns="http://www.w3.org/2000/svg" viewBox="0 0 221.86 187.43">
  <defs>
    <style>
      .cls-1 {
        stroke-width: 0px;
      }
    </style>
  </defs>
  <path class="cls-1" d="m117.68,93.88c0,26.62.01,53.23-.03,79.85,0,1.64-.17,3.34-.65,4.89-.9,2.92-3.34,4.08-6.18,2.98-1.43-.55-2.81-1.41-3.99-2.4-21.35-17.73-42.67-35.49-63.98-53.26-.93-.77-1.84-1.12-3.06-1.12-9.63.05-19.26.03-28.89.02-6.49,0-10.88-4.39-10.88-10.91-.01-13.43-.01-26.85,0-40.28,0-6.74,4.36-11.08,11.17-11.1,9.58-.02,19.17-.02,28.75.02,1.11,0,1.97-.27,2.83-.99,21.27-17.75,42.55-35.48,63.88-53.16,1.39-1.15,3.07-2.09,4.76-2.7,2.31-.84,4.45.18,5.33,2.49.58,1.51.92,3.21.92,4.83.05,26.95.04,53.9.04,80.85h0Z"/>
  <path class="cls-1" d="m221.86,96.48c-.39,18.36-3.75,35.96-12.08,52.41-7.46,14.74-17.75,27.07-31.55,36.33-2.49,1.67-5.09,2.76-8.15,1.93-3.54-.96-5.75-3.26-6.41-6.86-.65-3.55.49-6.63,3.49-8.57,18.22-11.81,29.1-28.8,33.94-49.54,6.68-28.6,3.04-55.98-12.04-81.46-5.77-9.75-13.06-18.27-22.15-25.16-3.83-2.9-4.52-8.25-1.68-12.06,2.8-3.76,8.02-4.67,11.91-1.88,6.76,4.84,12.48,10.78,17.68,17.23,13.83,17.17,22.25,36.71,25.28,58.53.88,6.33,1.19,12.73,1.77,19.1Z"/>
  <path class="cls-1" d="m180.85,101.1c-.09,12.44-5.5,28.4-18.02,41.61-3.47,3.67-7.32,6.9-11.71,9.42-3.22,1.85-6.47,1.78-9.51-.35-2.95-2.07-4.07-5.05-3.5-8.59.4-2.47,1.7-4.43,3.83-5.74,10.23-6.28,16.83-15.42,19.57-26.91,5.46-22.88.04-42.8-17.56-58.94-.73-.67-1.56-1.24-2.36-1.83-3.92-2.92-4.81-8.25-2.02-12.13,2.78-3.87,8.15-4.81,12.13-1.95,7.51,5.39,13.45,12.24,18.26,20.09,7.47,12.2,10.96,25.52,10.9,45.33Z"/>
</svg>