<?xml version="1.0" encoding="UTF-8"?>
<svg id="Layer_1" data-name="Layer 1" xmlns="http://www.w3.org/2000/svg" viewBox="0 0 65.67 85.8">
  <defs>
    <style>
      .cls-1 {
        stroke-width: 0px;
      }
    </style>
  </defs>
  <path class="cls-1" d="m16.37,59.28c-7.99-8.44-11.37-18.33-9.76-29.73,1.33-9.37,5.88-17.01,13.49-22.65,14.41-10.67,33.7-8.53,45.57,3.34-5.42,5.44-10.84,10.87-16.32,16.37-2.96-2.78-6.26-3.92-10.05-3.4-2.82.39-5.16,1.74-7.05,3.89-3.44,3.91-4.22,10.61.26,15.46-5.32,5.59-10.63,11.16-15.95,16.75,3.27,3.82,10.34,4.62,15.23.84,5.07-3.93,6.26-11.77,1.19-17.21,5.4-5.41,10.81-10.82,16.31-16.33,7.6,8.02,11.18,17.62,9.67,28.67-1.94,14.24-9.91,24.13-23.55,28.6-13.21,4.34-25.11,1.17-35.42-8.22,5.51-5.51,10.92-10.94,16.37-16.38Z"/>
</svg>