<?xml version="1.0" encoding="UTF-8"?>
<svg id="Layer_1" data-name="Layer 1" xmlns="http://www.w3.org/2000/svg" viewBox="0 0 398 383">
  <defs>
    <style>
      .cls-1, .cls-2 {
        stroke-width: 0px;
      }

      .cls-3 {
        letter-spacing: 0em;
      }

      .cls-4 {
        fill: #f2f2f2;
        font-family: MyriadPro-Regular, 'Myriad Pro';
        font-size: 60px;
      }

      .cls-5 {
        letter-spacing: -.01em;
      }

      .cls-6 {
        letter-spacing: -.01em;
      }

      .cls-2 {
        fill: #b3b3b3;
      }

      .cls-7 {
        letter-spacing: 0em;
      }

      .cls-8 {
        letter-spacing: 0em;
      }
    </style>
  </defs>
  <g>
    <rect class="cls-2" x=".5" y=".5" width="397" height="382" rx="21.38" ry="21.38"/>
    <path class="cls-1" d="m376.12,1c11.51,0,20.88,9.36,20.88,20.88v339.25c0,11.51-9.36,20.88-20.88,20.88H21.88c-11.51,0-20.88-9.36-20.88-20.88V21.88C1,10.36,10.36,1,21.88,1h354.25m0-1H21.88C9.79,0,0,9.79,0,21.88v339.25c0,12.08,9.79,21.88,21.88,21.88h354.25c12.08,0,21.88-9.79,21.88-21.88V21.88c0-12.08-9.79-21.88-21.88-21.88h0Z"/>
  </g>
  <text class="cls-4" transform="translate(45.04 173.11)"><tspan class="cls-7" x="0" y="0">P</tspan><tspan class="cls-8" x="31.62" y="0">la</tspan><tspan class="cls-3" x="74.7" y="0">c</tspan><tspan x="101.22" y="0">e holder</tspan><tspan x="-29.31" y="72">398</tspan><tspan class="cls-6" x="63.03" y="72">p</tspan><tspan x="96.33" y="72">x X 383</tspan><tspan class="cls-5" x="276.15" y="72">p</tspan><tspan x="309.44" y="72">x</tspan></text>
</svg>