<?xml version="1.0" encoding="UTF-8"?>
<svg id="Layer_1" data-name="Layer 1" xmlns="http://www.w3.org/2000/svg" viewBox="0 0 265.9 248.98">
  <defs>
    <style>
      .cls-1 {
        stroke-width: 0px;
      }
    </style>
  </defs>
  <path class="cls-1" d="m212.07,175.97c1.75-3.7,3.46-7.37,5.23-10.99.2-.4.76-.67,1.2-.91,4.98-2.62,9.99-5.2,14.96-7.84,2.66-1.41,4.96-1.02,6.21,1.18,1.28,2.26.49,4.59-2.08,6.14-.52.32-1.02.67-1.53,1.01.05.2.09.4.14.6,3.22-.44,6.54-.53,9.64-1.41,3.65-1.03,7.12-2.71,10.62-4.22.52-.22,1.14-.99,1.16-1.52.17-5.08-.96-9.87-3.48-14.66-.22.57-.34.86-.44,1.16-.75,2.23-2.48,3.29-4.7,2.86-2.26-.44-3.65-2.17-3.36-4.54.3-2.53.91-5.03,1.26-7.56,2.75-20.04,2.22-39.87-3.99-59.31-1.73-5.42-3.97-10.64-6.93-15.8-.31.49-.5.82-.72,1.12-1.34,1.88-3.51,2.52-5.34,1.59-1.92-.97-2.68-3.15-2.1-5.35,1.19-4.54,2.65-9.06,3.34-13.68,1.81-12.03.25-23.51-6.49-33.97-.69-1.07-1.44-1.46-2.71-1.3-7.5.98-14.23,3.72-20.04,8.62-.26.22-.59.37-.89.55.07.16.13.31.2.47,2.15.26,4.29.52,6.44.79,1.56.2,3.12.39,4.66.67,2.46.45,4.01,2.51,3.63,4.71-.42,2.42-2.47,3.91-4.95,3.55-21.1-3.02-42.3-4.42-63.61-3.64-27.65,1.02-54.66,5.4-80.47,15.81-8.47,3.42-16.66,7.42-24.1,12.81-1.61,1.17-3.31,1.14-5.13.54-8.9-2.93-17.89-3.12-26.99-.95-1.44.35-2.08.96-2.28,2.49-1.13,8.62,1,16.57,5.28,23.89,2.5,4.29,5.64,8.22,8.7,12.15,1.37,1.76,2.63,3.35,1.51,5.61-1.11,2.25-3.11,2.59-5.54,2.06,0,1.4-.03,2.72,0,4.04.35,15.28,1.9,30.41,6.96,44.94,1.71,4.91,3.92,9.7,6.39,14.28,1.69,3.12,4.15,5.85,6.42,8.63,1.5,1.84,2.03,3.59.81,5.39-6.24,9.17-6.2,19.19-4.1,29.5.34,1.65.9,3.25,1.25,4.89.25,1.19.83,1.55,2.05,1.5,10.04-.45,19.12-3.57,27.18-9.59.96-.72,1.86-1.51,3.1-2.51-2.71-.15-5-.22-7.28-.42-1.7-.15-2.95-1.06-3.55-2.68-.6-1.63-.25-3.26,1.05-4.29.91-.72,2.28-1.19,3.45-1.2,12.2-.05,24.4.03,36.6.04,1.62,0,3.24-.17,5.27-.28-.57.42-.83.66-1.12.83-2.64,1.48-4.57,3.61-5.56,6.46-.41,1.17-.99,1.44-2.14,1.44-4.76,0-9.53.12-14.29.14-.92,0-1.31.41-1.9,1.07-1.99,2.26-4.02,4.53-6.33,6.44-11.25,9.32-24.35,13.2-38.82,12.85-1.71-.04-3.14-.76-3.75-2.37-4.94-13-7.03-26.2-1.65-39.56,1.2-2.98,1.11-4.79-.84-7.4-6.76-9.03-10.45-19.5-13.06-30.36-3.89-16.17-4.85-32.6-4.3-49.16.05-1.39-.22-2.54-.99-3.74C4,79.57.41,70.97.03,61.26c-.16-4.16.38-8.22,1.55-12.22.54-1.83,1.64-2.94,3.48-3.53,10.92-3.49,21.91-3.72,33.01-.96.7.17,1.69.18,2.25-.19,12.79-8.55,26.86-14.24,41.5-18.62,19.64-5.87,39.78-8.81,60.22-9.84,15.75-.79,31.48-.41,47.2.93.67.06,1.64-.29,2.05-.79,7.99-9.74,18.57-14.27,30.79-15.92,4-.54,6.45.89,8.62,4,7.38,10.56,10.02,22.34,9.26,35.02-.18,2.95-.76,5.87-1.08,8.81-.07.62.02,1.41.36,1.9,7.92,11.63,12.67,24.51,15.2,38.26,2.57,13.94,2.71,27.95,1.38,42.03-.07.78.3,1.8.82,2.41,7.05,8.13,9.8,17.63,9.17,28.24-.1,1.66-.98,2.79-2.22,3.77-5.62,4.45-12.14,6.72-19.11,7.92-7.19,1.24-14.35.77-21.53-.13-1.02-.13-2.17.08-3.14.45-2.33.89-4.58,1.98-6.88,2.97-.29.13-.62.16-.86.21Z"/>
  <path class="cls-1" d="m206.48,141.69c3.99,1.23,4.71,2.03,4.72,6.44.03,11.44-4.05,21.19-12.27,29.18-.52.51-1.07.99-1.44,1.75.5-.08.99-.19,1.49-.25,1.83-.23,3.63.8,4.38,2.5.76,1.71.31,3.7-1.14,4.9-.31.26-.66.48-1.02.66-9.88,4.89-17.57,12.25-23.81,21.23-3.65,5.25-7.18,10.58-10.95,15.74-4.5,6.16-9.96,11.2-17.41,13.64-.99.32-1.99.61-2.98.92.45.87,1.01,1.64,1.26,2.5.62,2.11-.39,4.38-2.51,4.9-6.42,1.54-12.82,3.52-19.53,3.13-6.03-.35-11.05-2.99-15.11-7.39-.85-.92-1.41-1.02-2.61-.54-6.3,2.53-12.64,4.94-19,7.31-1.71.64-3.36.23-4.58-1.22-1.1-1.31-1.53-2.97-.6-4.37.74-1.1,2.03-2.03,3.28-2.55,5.26-2.16,10.6-4.13,15.9-6.18.47-.18.89-.48,1.42-.77-.34-.72-.62-1.34-.93-1.96-3.65-7.19-4.15-14.51-1.09-22.06.95-2.36,1.65-4.83,2.32-7.28,1.04-3.76,4.28-4.81,7.33-2.3.44.36.92.69,1.62,1.22,1.73-7.17,7.22-11.32,11.99-16.02,3.19-3.15,5.79-6.65,7.04-11.04.6-2.13,1.99-3.28,3.91-3.4,1.82-.12,3.15.81,4.13,2.86.09.18.17.37.2.45.67-4.4,1.14-8.84,2.07-13.19,1.21-5.69,3.55-10.93,7.38-15.41,1.96-2.29,4.03-4.19,7.06-2.33.34-4.14.4-8.22,1.06-12.2,1.61-9.57,6.4-17.47,13.5-24.01,4.84-4.45,10.33-7.9,16.37-10.45,3.16-1.33,5.75.4,6.28,3.78.33,2.14.98,4.32,1.94,6.26,2.15,4.38,4.66,8.58,6.88,12.92,2.78,5.43,4.88,11.08,4.36,17.35-.15,1.77-.58,3.52-.89,5.28Zm-95.04,87.77c.82-.49,1.61-.94,2.39-1.42,19.38-11.84,35.39-27.24,48.16-45.99,7.41-10.88,13.2-22.54,16.2-35.46.25-1.07.42-2.17.73-3.23.63-2.13,2.63-3.31,4.72-2.88,2.13.44,3.48,2.28,3.26,4.47-.06.58-.19,1.15-.31,1.71-2.29,10.72-6.37,20.76-11.78,30.24-13.88,24.33-32.95,43.65-56.82,58.26-.49.3-.97.6-1.45.91,2.67,3.64,9.26,5.63,13.41,4.04-.41-.7-.82-1.39-1.21-2.09-.99-1.75-1.54-3.57-.31-5.42,1.23-1.85,3.07-1.99,5.11-1.78,10.06,1.02,18.46-2.1,24.69-10.26,2.64-3.46,5.13-7.05,7.54-10.67,5.93-8.88,12.22-17.42,20.87-23.91.07-.06.08-.2.14-.36-.86-.74-1.78-1.44-2.58-2.25-2.17-2.2-1.58-5.41,1.21-6.78.83-.41,1.71-.74,2.52-1.19,8-4.42,12.04-11.65,14.19-20.18.2-.81.29-1.65.4-2.31-1.97-.28-3.79-.32-5.48-.83-4.74-1.42-4.74-5.48-2.09-7.97,4.09-3.85,5.12-8.77,3.49-14.09-.84-2.76-2.01-5.45-3.28-8.05-2.63-5.37-5.42-10.66-8.15-15.97-.04-.08-.18-.12-.43-.27-.97.57-2.03,1.15-3.05,1.8-9.49,6.03-15.81,14.27-17.54,25.6-1.14,7.46.06,14.7,2.28,21.82,1.07,3.41-1.12,6.09-4.69,5.76-3.71-.35-6.75-1.98-9.11-4.88-.32-.39-.64-.78-1.29-1.56-.98,3.11-2.02,5.82-2.67,8.63-1.97,8.45-1.67,16.94-.27,25.45.54,3.3-1.65,5.54-4.98,5.24-2.71-.25-4.84-1.6-6.53-3.63-1.14-1.36-2.1-2.87-3.03-4.17-2.86,2.86-5.73,5.71-8.58,8.58-.98.99-1.94,2-2.86,3.05-2.83,3.19-3.63,6.93-2.89,11.05.25,1.37.76,2.69.94,4.06.4,3.03-2.28,5.32-5.2,4.51-1.67-.46-2.58-1.68-3-3.32-.46-1.82-1.53-3.17-3.08-4.18-3.91,6.75-4.12,13.29.4,19.9Z"/>
  <path class="cls-1" d="m62.56,147.92c-.08,10.52-1.61,20.83-4.72,30.89-.85,2.74-3.44,3.91-5.9,2.71-1.82-.89-2.6-2.67-2.07-4.65.6-2.24,1.9-4.61,1.56-6.7-.33-2.06-2.34-3.85-3.62-5.76-15.62-23.39-20.45-48.84-14.49-76.32.29-1.32.18-2.32-.69-3.34-1.2-1.42-2.27-2.94-3.43-4.39-1.66-2.06-1.55-4.43.32-6.03,1.8-1.53,4.18-1.34,5.87.62,6.64,7.71,11.91,16.31,16.24,25.49,7.09,15.03,10.88,30.83,10.94,47.48Zm-9.3,9.31c2.18-21.57-2.84-41.51-13.21-60.26-2.71,21.66,1.51,41.79,13.21,60.26Z"/>
</svg>