<?xml version="1.0" encoding="UTF-8"?>
<svg id="Layer_1" data-name="Layer 1" xmlns="http://www.w3.org/2000/svg" viewBox="0 0 274.1 211.38">
  <defs>
    <style>
      .cls-1 {
        stroke-width: 0px;
      }
    </style>
  </defs>
  <path class="cls-1" d="m41.54,211.35c-10.18,0-20.36-.01-30.54,0-2.96,0-5.52-.93-7.73-2.88-3.8-3.36-4.36-8.3-1.33-12.35,10.81-14.47,21.63-28.92,32.45-43.38,11.35-15.17,22.68-30.35,34.09-45.48.98-1.3.89-2.05-.02-3.31C47.09,74.6,25.77,45.18,4.41,15.81c-2.2-3.02-3.15-6.14-1.44-9.63C4.77,2.51,7.83.55,11.86.1c.62-.07,1.25-.05,1.88-.05,18.84,0,37.69.08,56.53-.05,5.49-.04,9.44,1.89,12.7,6.41,22.54,31.29,45.24,62.47,67.89,93.69,2.71,3.73,2.73,7.43.05,11.13-23.01,31.73-46.03,63.44-69.04,95.18-2.51,3.46-5.93,4.94-10.11,4.94-10.07,0-20.15,0-30.22,0Z"/>
  <path class="cls-1" d="m162.6,211.35c-10.23,0-20.46,0-30.69,0-2.78,0-5.22-.92-7.31-2.74-3.98-3.46-4.52-8.36-1.37-12.57,11.69-15.63,23.39-31.26,35.08-46.89,10.41-13.91,20.81-27.84,31.27-41.72,1.01-1.33,1.07-2.17.05-3.56-21.36-29.32-42.65-58.68-64-88.01-2.2-3.02-3.17-6.12-1.48-9.63,1.78-3.68,4.81-5.65,8.84-6.14.52-.06,1.04-.05,1.56-.05,19.26,0,38.52.04,57.78-.02,4.82-.01,8.44,1.76,11.3,5.73,22.69,31.38,45.47,62.7,68.22,94.04,2.97,4.09,2.97,7.71,0,11.8-22.72,31.3-45.47,62.57-68.12,93.91-2.94,4.07-6.61,5.92-11.55,5.87-9.86-.09-19.73-.03-29.6-.03Z"/>
</svg>